<?xml version="1.0" encoding="UTF-8" standalone="no"?>
<svg
   height="512px"
   id="Layer_1"
   style="enable-background:new 0 0 512 512;"
   version="1.1"
   viewBox="0 0 512 512"
   width="512px"
   xml:space="preserve"
   sodipodi:docname="gear_icon.svg"
   inkscape:version="1.1.2 (0a00cf5339, 2022-02-04)"
   xmlns:inkscape="http://www.inkscape.org/namespaces/inkscape"
   xmlns:sodipodi="http://sodipodi.sourceforge.net/DTD/sodipodi-0.dtd"
   xmlns="http://www.w3.org/2000/svg"
   xmlns:svg="http://www.w3.org/2000/svg"><defs
     id="defs53" /><sodipodi:namedview
     id="namedview51"
     pagecolor="#ffffff"
     bordercolor="#666666"
     borderopacity="1.0"
     inkscape:pageshadow="2"
     inkscape:pageopacity="0.0"
     inkscape:pagecheckerboard="0"
     showgrid="false"
     inkscape:zoom="0.61914063"
     inkscape:cx="93.678233"
     inkscape:cy="268.11356"
     inkscape:window-width="1600"
     inkscape:window-height="844"
     inkscape:window-x="0"
     inkscape:window-y="0"
     inkscape:window-maximized="1"
     inkscape:current-layer="Layer_1" /><path
     d="M424.5,216.5h-15.2c-12.4,0-22.8-10.7-22.8-23.4c0-6.4,2.7-12.2,7.5-16.5l9.8-9.6c9.7-9.6,9.7-25.3,0-34.9l-22.3-22.1  c-4.4-4.4-10.9-7-17.5-7c-6.6,0-13,2.6-17.5,7l-9.4,9.4c-4.5,5-10.5,7.7-17,7.7c-12.8,0-23.5-10.4-23.5-22.7V89.1  c0-13.5-10.9-25.1-24.5-25.1h-30.4c-13.6,0-24.4,11.5-24.4,25.1v15.2c0,12.3-10.7,22.7-23.5,22.7c-6.4,0-12.3-2.7-16.6-7.4l-9.7-9.6  c-4.4-4.5-10.9-7-17.5-7s-13,2.6-17.5,7L110,132c-9.6,9.6-9.6,25.3,0,34.8l9.4,9.4c5,4.5,7.8,10.5,7.8,16.9  c0,12.8-10.4,23.4-22.8,23.4H89.2c-13.7,0-25.2,10.7-25.2,24.3V256v15.2c0,13.5,11.5,24.3,25.2,24.3h15.2  c12.4,0,22.8,10.7,22.8,23.4c0,6.4-2.8,12.4-7.8,16.9l-9.4,9.3c-9.6,9.6-9.6,25.3,0,34.8l22.3,22.2c4.4,4.5,10.9,7,17.5,7  c6.6,0,13-2.6,17.5-7l9.7-9.6c4.2-4.7,10.2-7.4,16.6-7.4c12.8,0,23.5,10.4,23.5,22.7v15.2c0,13.5,10.8,25.1,24.5,25.1h30.4  c13.6,0,24.4-11.5,24.4-25.1v-15.2c0-12.3,10.7-22.7,23.5-22.7c6.4,0,12.4,2.8,17,7.7l9.4,9.4c4.5,4.4,10.9,7,17.5,7  c6.6,0,13-2.6,17.5-7l22.3-22.2c9.6-9.6,9.6-25.3,0-34.9l-9.8-9.6c-4.8-4.3-7.5-10.2-7.5-16.5c0-12.8,10.4-23.4,22.8-23.4h15.2  c13.6,0,23.3-10.7,23.3-24.3V256v-15.2C447.8,227.2,438.1,216.5,424.5,216.5z M336.8,256L336.8,256c0,44.1-35.7,80-80,80  c-44.3,0-80-35.9-80-80l0,0l0,0c0-44.1,35.7-80,80-80C301.1,176,336.8,211.9,336.8,256L336.8,256z"
     id="path48" /><path
     style="fill:#ffffff;stroke-width:0.807571"
     d="m 234.83611,446.62821 c -7.08623,-2.21482 -13.90494,-9.14919 -16.06977,-16.34234 -0.71633,-2.38019 -1.12596,-7.60759 -1.12596,-14.36859 0,-14.19704 -1.07177,-17.77596 -7.13804,-23.83592 -5.16965,-5.16427 -10.00867,-7.27379 -16.68531,-7.27379 -7.63626,0 -11.10539,1.85181 -20.808,11.10725 -10.70084,10.20765 -15.05281,12.54983 -23.31867,12.54983 -9.28504,0 -13.18072,-2.49164 -29.02424,-18.56358 -15.54386,-15.76796 -17.25444,-18.4794 -17.22399,-27.3017 0.0287,-8.31179 1.94026,-11.83911 12.02878,-22.19615 9.84881,-10.11095 11.67817,-13.40382 11.70378,-21.06693 0.0228,-6.83186 -1.73168,-11.8708 -5.705,-16.38474 -5.56309,-6.32 -8.68503,-7.31303 -24.561173,-7.8124 -11.684545,-0.36754 -14.290931,-0.6875 -17.504642,-2.14886 -5.311581,-2.41533 -10.649442,-7.62486 -12.889688,-12.5798 -1.842839,-4.07597 -1.908509,-4.91591 -1.908509,-24.41049 0,-19.49458 0.06567,-20.33452 1.908509,-24.41049 2.240246,-4.95494 7.578107,-10.16447 12.889688,-12.5798 3.213711,-1.46136 5.820097,-1.78132 17.504642,-2.14886 15.876143,-0.49937 18.998083,-1.4924 24.561173,-7.8124 3.97332,-4.51394 5.72783,-9.55288 5.705,-16.38474 -0.0256,-7.66311 -1.85497,-10.95598 -11.70378,-21.06693 -10.09439,-10.36307 -11.99808,-13.87915 -12.03311,-22.22494 -0.0393,-9.37119 1.97458,-12.46936 18.35413,-28.23564 8.22965,-7.92153 15.35937,-14.08777 17.51406,-15.14729 2.51436,-1.23639 5.54636,-1.8787 9.84047,-2.08465 8.97589,-0.43049 12.89707,1.57263 23.96706,12.24344 10.25307,9.88336 13.64785,11.50657 22.70899,10.85824 8.8849,-0.63571 15.35591,-4.94284 19.59782,-13.04437 1.51136,-2.88655 1.80341,-5.13232 2.21759,-17.053053 0.40265,-11.588805 0.74349,-14.317264 2.1867,-17.504642 2.4021,-5.305149 7.61277,-10.647296 12.57246,-12.889688 4.08306,-1.846044 4.89522,-1.908509 24.81428,-1.908509 h 20.59306 l 4.03785,2.140378 c 5.11928,2.713619 9.55608,7.156349 11.89555,11.911474 1.61109,3.274622 1.87897,5.341175 2.26111,17.443416 0.48858,15.473174 1.36287,18.470114 7.05542,24.185004 5.18138,5.20171 8.46191,6.47304 16.74376,6.48883 9.50932,0.0181 11.40548,-0.9652 22.68155,-11.76252 10.12027,-9.6906 13.17302,-11.23939 22.15351,-11.23939 8.94978,0 12.56778,2.35869 28.761,18.75023 12.08341,12.23138 14.00187,14.53408 15.52161,18.63022 2.09598,5.6493 2.19527,10.25701 0.34539,16.02839 -1.1649,3.63432 -2.85883,5.85216 -10.51165,13.7628 -10.64762,11.00631 -12.28371,13.94883 -12.30907,22.13786 -0.0295,9.51261 4.56784,17.00379 13.21313,21.53038 2.89264,1.51456 5.10714,1.79998 17.05304,2.19791 15.89349,0.52943 19.03656,1.53021 24.57824,7.82589 5.45087,6.19252 5.83959,8.48363 5.55301,32.72951 l -0.25112,21.24593 -2.18853,4.14918 c -1.2037,2.28205 -3.73167,5.47005 -5.61772,7.08444 -4.92391,4.21468 -9.52653,5.32158 -22.12772,5.32158 -12.66617,0 -17.30314,1.19608 -22.55335,5.81749 -5.12029,4.50707 -8.01389,10.86038 -7.99141,17.54631 0.027,8.03352 2.12612,11.85195 12.05378,21.9267 10.09286,10.2424 12.01295,13.79874 11.95444,22.14168 -0.0628,8.96285 -1.74689,11.63963 -17.17611,27.3017 -15.78279,16.02099 -19.89674,18.66331 -29.04005,18.65196 -8.17591,-0.0102 -12.88074,-2.56227 -23.37885,-12.68183 -9.56683,-9.22187 -13.03552,-11.06363 -20.83669,-11.06363 -8.90829,0 -17.85195,5.68818 -21.58598,13.72871 -1.42707,3.07294 -1.75743,5.75388 -2.13957,17.36277 -0.4221,12.82322 -0.59333,14.00076 -2.59611,17.85346 -2.90198,5.58246 -9.38,11.28436 -14.57214,12.82625 -5.4604,1.62157 -38.8047,1.65908 -43.95463,0.0494 z m 41.72178,-112.67438 c 8.18308,-2.02933 20.13947,-7.54525 26.96889,-12.44174 5.69402,-4.08245 16.03014,-14.54073 19.65205,-19.88433 15.80557,-23.31881 18.293,-54.46623 6.36121,-79.6545 -4.56237,-9.63124 -7.46187,-13.82053 -14.93616,-21.58022 -7.63149,-7.92288 -13.91105,-12.45549 -23.64295,-17.06553 -11.71909,-5.55138 -19.60421,-7.21778 -34.15336,-7.21778 -14.54915,0 -22.43427,1.6664 -34.15335,7.21778 -9.73191,4.61004 -16.01146,9.14265 -23.64295,17.06553 -7.47652,7.762 -10.37366,11.94869 -14.94248,21.59356 -5.48451,11.57792 -7.15149,19.50626 -7.15149,34.0134 0,14.54915 1.6664,22.43427 7.21778,34.15336 4.61005,9.7319 9.14265,16.01146 17.06553,23.64294 9.28022,8.93892 18.42645,14.56355 30.04797,18.47856 13.11254,4.41729 31.51712,5.09929 45.30931,1.67897 z"
     id="path190" /></svg>
